<svg id="svg" fill="#000000" stroke="#000000" width="200px" height="200px" version="1.1" viewBox="144 144 512 512" xmlns="http://www.w3.org/2000/svg">
    <g id="IconSvg_bgCarrier" stroke-width="0"></g>
    <g id="IconSvg_tracerCarrier" stroke-linecap="round" stroke-linejoin="round" stroke="#CCCCCC"></g>
     <g id="IconSvg_iconCarrier">
      <g xmlns="http://www.w3.org/2000/svg">
  <path d="m603.54 222.85h-374.86v22.109h374.86zm-5.2461 16.859h-364.37v-11.613h364.37z"></path>
  <path d="m198.88 236.52h20.242c1.4492 0 2.625-1.1719 2.625-2.6211 0-1.4492-1.1758-2.625-2.625-2.625h-20.242c-1.4492 0-2.625 1.1758-2.625 2.625 0 1.4492 1.1758 2.6211 2.625 2.6211z"></path>
  <path d="m565.1 251.23h-336.53v22.117h336.53zm-5.2461 16.871h-326.04v-11.625h326.03z"></path>
  <path d="m198.88 264.91h20.242c1.4492 0 2.6211-1.1758 2.6211-2.625 0-1.4492-1.1719-2.625-2.6211-2.625h-20.242c-1.4492 0-2.625 1.1758-2.625 2.625 0 1.4492 1.1758 2.625 2.625 2.625z"></path>
  <path d="m534.57 279.61h-306.11v22.117h306.11zm-5.2461 16.871h-295.61v-11.625h295.61z"></path>
  <path d="m198.88 293.3h20.234-0.003906c1.4492 0 2.625-1.1758 2.625-2.625s-1.1758-2.625-2.625-2.625h-20.23c-1.4492 0-2.625 1.1758-2.625 2.625s1.1758 2.625 2.625 2.625z"></path>
  <path d="m503.08 308h-274.7v22.109h274.7zm-5.2461 16.859-264.21 0.003907v-11.613h264.21z"></path>
  <path d="m198.86 321.68h20.234-0.003906c1.4492 0 2.625-1.1719 2.625-2.6211 0-1.4492-1.1758-2.625-2.625-2.625h-20.23c-1.4492 0-2.625 1.1758-2.625 2.625 0 1.4492 1.1758 2.6211 2.625 2.6211z"></path>
  <path d="m473.09 336.39h-244.77v22.121h244.77zm-5.2461 16.871h-234.27v-11.621h234.27z"></path>
  <path d="m198.85 350.07h20.246c1.4492 0 2.6211-1.1758 2.6211-2.625 0-1.4492-1.1719-2.6211-2.6211-2.6211h-20.246c-1.4492 0-2.6211 1.1719-2.6211 2.6211 0 1.4492 1.1719 2.625 2.6211 2.625z"></path>
  <path d="m428.11 364.77h-199.84v22.121h199.84zm-5.2461 16.871h-189.35v-11.625h189.35z"></path>
  <path d="m198.84 378.45h20.246c1.4492 0 2.625-1.1758 2.625-2.625s-1.1758-2.625-2.625-2.625h-20.246c-1.4492 0-2.6211 1.1758-2.6211 2.625s1.1719 2.625 2.6211 2.625z"></path>
  <path d="m378.63 393.16h-150.23v22.109h150.23zm-5.2461 16.859-139.74 0.003907v-11.613h139.74z"></path>
  <path d="m198.83 406.84h20.242c1.4492 0 2.625-1.1758 2.625-2.625 0-1.4492-1.1758-2.625-2.625-2.625h-20.242c-1.4492 0-2.625 1.1758-2.625 2.625 0 1.4492 1.1758 2.625 2.625 2.625z"></path>
  <path d="m228.32 443.66h114.33v-22.121h-114.33zm5.2461-16.871h103.84v11.625l-103.83-0.003907z"></path>
  <path d="m198.82 435.23h20.246c1.4492 0 2.6211-1.1719 2.6211-2.6211s-1.1719-2.625-2.6211-2.625h-20.246c-1.4492 0-2.625 1.1758-2.625 2.625s1.1758 2.6211 2.625 2.6211z"></path>
  <path d="m306.14 449.93h-77.879v22.121h77.879zm-5.2461 16.871h-67.383v-11.625h67.383z"></path>
  <path d="m198.81 463.61h20.242c1.4492 0 2.625-1.1758 2.625-2.625s-1.1758-2.6211-2.625-2.6211h-20.242c-1.4492 0-2.625 1.1719-2.625 2.6211s1.1758 2.625 2.625 2.625z"></path>
  <path d="m280.79 478.32h-52.562v22.109h52.562zm-5.2461 16.859h-42.066v-11.613h42.066z"></path>
  <path d="m198.8 491.99h20.242c1.4492 0 2.625-1.1758 2.625-2.625 0-1.4492-1.1758-2.6211-2.625-2.6211h-20.242c-1.4492 0-2.625 1.1719-2.625 2.6211 0 1.4492 1.1758 2.625 2.625 2.625z"></path>
  <path d="m263.93 506.7h-35.723v22.121h35.723zm-5.2461 16.871-25.227 0.003907v-11.625h25.223z"></path>
  <path d="m198.79 520.39h20.246c1.4492 0 2.6211-1.1758 2.6211-2.625s-1.1719-2.625-2.6211-2.625h-20.246c-1.4492 0-2.625 1.1758-2.625 2.625s1.1758 2.625 2.625 2.625z"></path>
  <path d="m263.92 535.08h-35.711v22.121h35.711zm-5.2461 16.871-25.215 0.003906v-11.625h25.215z"></path>
  <path d="m198.78 548.77h20.242c1.4492 0 2.625-1.1719 2.625-2.6211s-1.1758-2.625-2.625-2.625h-20.242c-1.4492 0-2.625 1.1758-2.625 2.625s1.1758 2.6211 2.625 2.6211z"></path>
  <path d="m609.25 571.9h-410.48c-1.4492 0-2.625 1.1758-2.625 2.625 0 1.4492 1.1758 2.625 2.625 2.625h410.48c1.4492 0 2.6211-1.1758 2.6211-2.625 0-1.4492-1.1719-2.625-2.6211-2.625z"></path>
 </g>

      </g>
      </svg>